<svg width="30" height="30" viewBox="0 0 30 30" fill="none" xmlns="http://www.w3.org/2000/svg">
<path d="M2.4643 26.7L2 9.3665L4.32152 6.33314H8.96457H15.0005V7.19981L18.2507 10.6665L21.0365 13.2665L22.4294 14.5665H22.8937V16.7332V21.9333L22.4294 25.8333L20.5722 27.5667L15.4648 28H8.03596L2.4643 26.7Z" fill="#FFD4D1"/>
<path d="M23.1129 24.5402L24.6095 24.6413V24.6413L23.1129 24.5402ZM5.7196 6.54756L5.62389 5.05061L5.7196 6.54756ZM2.24508 9.7929L0.748484 9.69189L2.24508 9.7929ZM2.24508 24.5402L3.74167 24.4392L2.24508 24.5402ZM5.7196 27.7856L5.62389 29.2825H5.62389L5.7196 27.7856ZM19.6384 27.7856L19.7341 29.2825H19.7341L19.6384 27.7856ZM15.1138 7.85673C15.9421 7.87357 16.6271 7.21578 16.644 6.38752C16.6608 5.55926 16.003 4.87419 15.1748 4.85735L15.1138 7.85673ZM24.8165 14.0869C24.794 13.2588 24.1045 12.6057 23.2764 12.6281C22.4483 12.6506 21.7951 13.3401 21.8176 14.1682L24.8165 14.0869ZM8.97776 15.6948C8.14933 15.6948 7.47776 16.3664 7.47776 17.1948C7.47776 18.0232 8.14933 18.6948 8.97776 18.6948V15.6948ZM16.3803 18.6948C17.2087 18.6948 17.8803 18.0232 17.8803 17.1948C17.8803 16.3664 17.2087 15.6948 16.3803 15.6948V18.6948ZM8.97776 20.9422C8.14933 20.9422 7.47776 21.6138 7.47776 22.4422C7.47776 23.2706 8.14933 23.9422 8.97776 23.9422V20.9422ZM16.3572 23.9422C17.1857 23.9422 17.8572 23.2706 17.8572 22.4422C17.8572 21.6138 17.1857 20.9422 16.3572 20.9422V23.9422ZM8.97776 10.2499C8.14933 10.2499 7.47776 10.9214 7.47776 11.7499C7.47776 12.5783 8.14933 13.2499 8.97776 13.2499V10.2499ZM13.4448 13.2499C14.2732 13.2499 14.9448 12.5783 14.9448 11.7499C14.9448 10.9214 14.2732 10.2499 13.4448 10.2499V13.2499ZM21.858 17.1666C21.858 19.6606 21.7747 22.0932 21.6163 24.4392L24.6095 24.6413C24.7725 22.2271 24.858 19.7271 24.858 17.1666H21.858ZM5.81531 8.0445C7.98242 7.90594 10.0758 7.83314 12.679 7.83314V4.83314C10.0128 4.83314 7.85556 4.90793 5.62389 5.05061L5.81531 8.0445ZM3.5 17.1666C3.5 14.6726 3.58333 12.2399 3.74167 9.89391L0.748484 9.69189C0.585544 12.106 0.5 14.6061 0.5 17.1666H3.5ZM3.74167 24.4392C3.58333 22.0932 3.5 19.6606 3.5 17.1666H0.5C0.5 19.7271 0.585544 22.2271 0.748485 24.6413L3.74167 24.4392ZM12.679 26.5C10.0758 26.5 7.98242 26.4272 5.81531 26.2886L5.62389 29.2825C7.85556 29.4252 10.0128 29.5 12.679 29.5V26.5ZM19.5427 26.2886C17.3756 26.4272 15.2822 26.5 12.679 26.5V29.5C15.3452 29.5 17.5025 29.4252 19.7341 29.2825L19.5427 26.2886ZM12.679 7.83314C13.54 7.83314 14.3446 7.8411 15.1138 7.85673L15.1748 4.85735C14.3836 4.84128 13.5587 4.83314 12.679 4.83314V7.83314ZM21.8176 14.1682C21.8444 15.1565 21.858 16.1565 21.858 17.1666H24.858C24.858 16.1295 24.844 15.1024 24.8165 14.0869L21.8176 14.1682ZM0.748485 24.6413C0.922379 27.2177 3.09004 29.1205 5.62389 29.2825L5.81531 26.2886C4.60709 26.2114 3.80274 25.344 3.74167 24.4392L0.748485 24.6413ZM5.62389 5.05061C3.09004 5.21262 0.922378 7.11548 0.748484 9.69189L3.74167 9.89391C3.80274 8.98911 4.60709 8.12175 5.81531 8.0445L5.62389 5.05061ZM21.6163 24.4392C21.5553 25.344 20.7509 26.2114 19.5427 26.2886L19.7341 29.2825C22.268 29.1205 24.4356 27.2177 24.6095 24.6413L21.6163 24.4392ZM8.97776 18.6948H16.3803V15.6948H8.97776V18.6948ZM8.97776 23.9422H16.3572V20.9422H8.97776V23.9422ZM8.97776 13.2499H13.4448V10.2499H8.97776V13.2499Z" fill="#E60012"/>
<path d="M23.3585 2L23.3585 10.6667" stroke="#E60012" stroke-width="3" stroke-linecap="round"/>
<path d="M27.9999 6.33289L18.7138 6.33288" stroke="#E60012" stroke-width="3" stroke-linecap="round"/>
</svg>
