<svg width="28" height="28" viewBox="0 0 28 28" fill="none" xmlns="http://www.w3.org/2000/svg">
<path d="M2 15.7143V19.6327C2 20.7147 2.85961 21.5918 3.92 21.5918H24.08C25.1404 21.5918 26 20.7147 26 19.6327V15.7143C26 12.7755 25.04 9.83673 21.2 9.83673H6.8C2.96 9.83673 2 12.7755 2 15.7143Z" fill="#FFD4D1"/>
<path d="M6.32 3.95918V9.83673H21.68V3.95918C21.68 2.87716 20.8204 2 19.76 2H8.24C7.17961 2 6.32 2.87716 6.32 3.95918Z" fill="#FFD4D1"/>
<path d="M20.72 19.1429C21.845 19.8729 22.3634 21.9948 22.5516 24.0436C22.6506 25.1209 21.7804 26 20.72 26H7.28C6.21962 26 5.34943 25.1209 5.44839 24.0436C5.6366 21.9948 6.155 19.8729 7.28 19.1429H20.72Z" fill="#FFD4D1"/>
<path d="M2 15.7143V19.6327C2 20.7147 2.85961 21.5918 3.92 21.5918H24.08C25.1404 21.5918 26 20.7147 26 19.6327V15.7143C26 12.7755 25.04 9.83673 21.2 9.83673H6.8C2.96 9.83673 2 12.7755 2 15.7143Z" stroke="#E60012" stroke-width="3" stroke-linecap="round" stroke-linejoin="round"/>
<path d="M6.32 3.95918V9.83673H21.68V3.95918C21.68 2.87716 20.8204 2 19.76 2H8.24C7.17961 2 6.32 2.87716 6.32 3.95918Z" stroke="#E60012" stroke-width="3" stroke-linecap="round" stroke-linejoin="round"/>
<path d="M20.72 19.1429C21.845 19.8729 22.3634 21.9948 22.5516 24.0436C22.6506 25.1209 21.7804 26 20.72 26H7.28C6.21962 26 5.34943 25.1209 5.44839 24.0436C5.6366 21.9948 6.155 19.8729 7.28 19.1429H20.72Z" stroke="#E60012" stroke-width="3" stroke-linecap="round" stroke-linejoin="round"/>
</svg>
