<svg width="28" height="28" viewBox="0 0 28 28" fill="none" xmlns="http://www.w3.org/2000/svg">
<path d="M16.822 9.02907C16.9371 10.0929 17.8024 10.9486 18.8778 11.0671C19.6765 11.1552 20.4965 11.2308 21.3327 11.2308C22.1688 11.2308 22.9889 11.1552 23.7876 11.0671C24.8629 10.9486 25.7282 10.0929 25.8433 9.02907C25.9282 8.24371 26 7.43741 26 6.61538C26 5.79336 25.9282 4.98706 25.8433 4.2017C25.7282 3.13784 24.8629 2.28218 23.7876 2.16365C22.9889 2.07561 22.1688 2 21.3327 2C20.4965 2 19.6765 2.07561 18.8778 2.16365C17.8024 2.28218 16.9371 3.13784 16.822 4.2017C16.7371 4.98706 16.6653 5.79336 16.6653 6.61538C16.6653 7.43741 16.7371 8.24371 16.822 9.02907Z" fill="#FFD4D1"/>
<path d="M2.15672 9.02907C2.27183 10.0929 3.13712 10.9486 4.21244 11.0671C5.01115 11.1552 5.83123 11.2308 6.66734 11.2308C7.50345 11.2308 8.32353 11.1552 9.12224 11.0671C10.1976 10.9486 11.0629 10.0929 11.178 9.02907C11.2629 8.24371 11.3347 7.43741 11.3347 6.61538C11.3347 5.79336 11.2629 4.98706 11.178 4.2017C11.0629 3.13784 10.1976 2.28218 9.12224 2.16365C8.32353 2.07561 7.50345 2 6.66734 2C5.83123 2 5.01115 2.07561 4.21244 2.16365C3.13712 2.28218 2.27183 3.13784 2.15672 4.2017C2.07175 4.98706 2 5.79336 2 6.61538C2 7.43741 2.07175 8.24371 2.15672 9.02907Z" fill="#FFD4D1"/>
<path d="M2.15672 23.7983C2.27183 24.8622 3.13712 25.7178 4.21244 25.8363C5.01115 25.9244 5.83123 26 6.66734 26C7.50345 26 8.32353 25.9244 9.12224 25.8364C10.1976 25.7178 11.0629 24.8622 11.178 23.7983C11.2629 23.0129 11.3347 22.2066 11.3347 21.3846C11.3347 20.5626 11.2629 19.7563 11.178 18.9709C11.0629 17.9071 10.1976 17.0514 9.12224 16.9329C8.32353 16.8448 7.50345 16.7692 6.66734 16.7692C5.83123 16.7692 5.01115 16.8448 4.21244 16.9329C3.13712 17.0514 2.27183 17.9071 2.15672 18.9709C2.07175 19.7563 2 20.5626 2 21.3846C2 22.2066 2.07175 23.0129 2.15672 23.7983Z" fill="#FFD4D1"/>
<path d="M16.822 23.7983C16.9371 24.8622 17.8024 25.7178 18.8778 25.8363C19.6765 25.9244 20.4965 26 21.3327 26C22.1688 26 22.9889 25.9244 23.7876 25.8364C24.8629 25.7178 25.7282 24.8622 25.8433 23.7983C25.9282 23.0129 26 22.2066 26 21.3846C26 20.5626 25.9282 19.7563 25.8433 18.9709C25.7282 17.9071 24.8629 17.0514 23.7876 16.9329C22.9889 16.8448 22.1688 16.7692 21.3327 16.7692C20.4965 16.7692 19.6765 16.8448 18.8778 16.9329C17.8024 17.0514 16.9371 17.9071 16.822 18.9709C16.7371 19.7563 16.6653 20.5626 16.6653 21.3846C16.6653 22.2066 16.7371 23.0129 16.822 23.7983Z" fill="#FFD4D1"/>
<path d="M16.822 9.02907C16.9371 10.0929 17.8024 10.9486 18.8778 11.0671C19.6765 11.1552 20.4965 11.2308 21.3327 11.2308C22.1688 11.2308 22.9889 11.1552 23.7876 11.0671C24.8629 10.9486 25.7282 10.0929 25.8433 9.02907C25.9282 8.24371 26 7.43741 26 6.61538C26 5.79336 25.9282 4.98706 25.8433 4.2017C25.7282 3.13784 24.8629 2.28218 23.7876 2.16365C22.9889 2.07561 22.1688 2 21.3327 2C20.4965 2 19.6765 2.07561 18.8778 2.16365C17.8024 2.28218 16.9371 3.13784 16.822 4.2017C16.7371 4.98706 16.6653 5.79336 16.6653 6.61538C16.6653 7.43741 16.7371 8.24371 16.822 9.02907Z" stroke="#E60012" stroke-width="3"/>
<path d="M2.15672 9.02907C2.27183 10.0929 3.13712 10.9486 4.21244 11.0671C5.01115 11.1552 5.83123 11.2308 6.66734 11.2308C7.50345 11.2308 8.32353 11.1552 9.12224 11.0671C10.1976 10.9486 11.0629 10.0929 11.178 9.02907C11.2629 8.24371 11.3347 7.43741 11.3347 6.61538C11.3347 5.79336 11.2629 4.98706 11.178 4.2017C11.0629 3.13784 10.1976 2.28218 9.12224 2.16365C8.32353 2.07561 7.50345 2 6.66734 2C5.83123 2 5.01115 2.07561 4.21244 2.16365C3.13712 2.28218 2.27183 3.13784 2.15672 4.2017C2.07175 4.98706 2 5.79336 2 6.61538C2 7.43741 2.07175 8.24371 2.15672 9.02907Z" stroke="#E60012" stroke-width="3"/>
<path d="M2.15672 23.7983C2.27183 24.8622 3.13712 25.7178 4.21244 25.8363C5.01115 25.9244 5.83123 26 6.66734 26C7.50345 26 8.32353 25.9244 9.12224 25.8364C10.1976 25.7178 11.0629 24.8622 11.178 23.7983C11.2629 23.0129 11.3347 22.2066 11.3347 21.3846C11.3347 20.5626 11.2629 19.7563 11.178 18.9709C11.0629 17.9071 10.1976 17.0514 9.12224 16.9329C8.32353 16.8448 7.50345 16.7692 6.66734 16.7692C5.83123 16.7692 5.01115 16.8448 4.21244 16.9329C3.13712 17.0514 2.27183 17.9071 2.15672 18.9709C2.07175 19.7563 2 20.5626 2 21.3846C2 22.2066 2.07175 23.0129 2.15672 23.7983Z" stroke="#E60012" stroke-width="3"/>
<path d="M16.822 23.7983C16.9371 24.8622 17.8024 25.7178 18.8778 25.8363C19.6765 25.9244 20.4965 26 21.3327 26C22.1688 26 22.9889 25.9244 23.7876 25.8364C24.8629 25.7178 25.7282 24.8622 25.8433 23.7983C25.9282 23.0129 26 22.2066 26 21.3846C26 20.5626 25.9282 19.7563 25.8433 18.9709C25.7282 17.9071 24.8629 17.0514 23.7876 16.9329C22.9889 16.8448 22.1688 16.7692 21.3327 16.7692C20.4965 16.7692 19.6765 16.8448 18.8778 16.9329C17.8024 17.0514 16.9371 17.9071 16.822 18.9709C16.7371 19.7563 16.6653 20.5626 16.6653 21.3846C16.6653 22.2066 16.7371 23.0129 16.822 23.7983Z" stroke="#E60012" stroke-width="3"/>
</svg>
