<svg width="28" height="28" viewBox="0 0 28 28" fill="none" xmlns="http://www.w3.org/2000/svg">
<path d="M2.40294 20.2756C2.69888 23.0416 4.92359 25.2663 7.6883 25.5745C9.74183 25.8034 11.8503 26 14 26C16.1497 26 18.2582 25.8034 20.3117 25.5745C23.0764 25.2663 25.3011 23.0416 25.5971 20.2756C25.8155 18.2336 26 16.1373 26 14C26 11.8627 25.8155 9.76636 25.5971 7.72442C25.3011 4.95838 23.0764 2.73366 20.3117 2.42549C18.2582 2.19659 16.1497 2 14 2C11.8503 2 9.74183 2.19659 7.6883 2.42549C4.92359 2.73366 2.69888 4.95838 2.40294 7.72442C2.18448 9.76636 2 11.8627 2 14C2 16.1373 2.18448 18.2336 2.40294 20.2756Z" fill="white"/>
<path d="M25.9191 15.92H19.7377C18.6809 15.92 17.8506 16.8206 17.3848 17.7725C16.8788 18.8065 15.8656 19.76 13.9972 19.76C12.1287 19.76 11.1155 18.8065 10.6095 17.7725C10.1438 16.8206 9.31344 15.92 8.25664 15.92H2.07523C2.13628 17.5316 2.26664 19.1288 2.42719 20.677C2.69538 23.2633 4.72836 25.3217 7.30505 25.5993C9.47241 25.8328 11.7299 26 13.9972 26C16.2644 26 18.5219 25.8328 20.6893 25.5993C23.266 25.3217 25.2989 23.2633 25.5671 20.677C25.7277 19.1288 25.858 17.5316 25.9191 15.92Z" fill="white"/>
<path d="M2.40294 20.2756C2.69888 23.0416 4.92359 25.2663 7.6883 25.5745C9.74183 25.8034 11.8503 26 14 26C16.1497 26 18.2582 25.8034 20.3117 25.5745C23.0764 25.2663 25.3011 23.0416 25.5971 20.2756C25.8155 18.2336 26 16.1373 26 14C26 11.8627 25.8155 9.76636 25.5971 7.72442C25.3011 4.95838 23.0764 2.73366 20.3117 2.42549C18.2582 2.19659 16.1497 2 14 2C11.8503 2 9.74183 2.19659 7.6883 2.42549C4.92359 2.73366 2.69888 4.95838 2.40294 7.72442C2.18448 9.76636 2 11.8627 2 14C2 16.1373 2.18448 18.2336 2.40294 20.2756Z" stroke="#E60012" stroke-width="3" stroke-linejoin="round"/>
<path d="M25.9191 15.92H19.7377C18.6809 15.92 17.8506 16.8206 17.3848 17.7725C16.8788 18.8065 15.8656 19.76 13.9972 19.76C12.1287 19.76 11.1155 18.8065 10.6095 17.7725C10.1438 16.8206 9.31344 15.92 8.25664 15.92H2.07523C2.13628 17.5316 2.26664 19.1288 2.42719 20.677C2.69538 23.2633 4.72836 25.3217 7.30505 25.5993C9.47241 25.8328 11.7299 26 13.9972 26C16.2644 26 18.5219 25.8328 20.6893 25.5993C23.266 25.3217 25.2989 23.2633 25.5671 20.677C25.7277 19.1288 25.858 17.5316 25.9191 15.92Z" stroke="#E60012" stroke-width="3" stroke-linejoin="round"/>
</svg>
